<svg width="96" height="100" viewBox="0 0 96 100" fill="none" xmlns="http://www.w3.org/2000/svg">
<path d="M47 0H71L49 100H25L47 0Z" fill="#4D8C7C"/>
<rect x="68.5977" y="26.7036" width="4" height="20" transform="rotate(60 68.5977 26.7036)" fill="#F6CD76" stroke="#572E0F" stroke-width="2"/>
<rect x="60.6622" y="30.1305" width="6" height="20" transform="rotate(60 60.6622 30.1305)" fill="#F6CD76" stroke="#572E0F" stroke-width="2"/>
<rect x="74.5977" y="37.0959" width="4" height="20" transform="rotate(60 74.5977 37.0959)" fill="#F6CD76" stroke="#572E0F" stroke-width="2"/>
<rect x="66.6622" y="40.5228" width="6" height="20" transform="rotate(60 66.6622 40.5228)" fill="#F6CD76" stroke="#572E0F" stroke-width="2"/>
<path d="M51.0019 33.3984L62.0019 52.451C62.0019 52.451 57.813 59.3085 54.1096 62.7811C48.7501 67.8065 42.0894 70.687 35.1369 72.4138C33.466 72.8289 31.7443 72.0433 30.8834 70.5523L19.7665 51.2971C18.9056 49.8061 19.0861 47.9222 20.281 46.6827C25.2527 41.5251 31.0777 37.197 38.1096 35.0683C42.9686 33.5973 51.0019 33.3984 51.0019 33.3984Z" fill="#F6CD76" stroke="#572E0F" stroke-width="2"/>
<path d="M53.5591 56.1707C54.5157 55.6184 54.8434 54.3952 54.2911 53.4387L46.2911 39.5823C45.7389 38.6257 44.5157 38.2979 43.5591 38.8502L34.1814 44.2644C29.3985 47.0258 27.7597 53.1417 30.5211 57.9247V57.9247C33.2826 62.7076 39.3985 64.3464 44.1814 61.5849L53.5591 56.1707Z" fill="#F6CD76" stroke="#572E0F" stroke-width="2"/>
<path d="M45.5411 52.7897C46.0194 52.5135 46.1832 51.9019 45.9071 51.4236L43.9071 47.9595C43.631 47.4813 43.0194 47.3174 42.5411 47.5935L35.6129 51.5935C35.1346 51.8697 34.9707 52.4813 35.2469 52.9595L37.2469 56.4236C37.523 56.9019 38.1346 57.0658 38.6129 56.7897L45.5411 52.7897Z" fill="#572E0F"/>
</svg>
