<svg width="96" height="100" viewBox="0 0 96 100" fill="none" xmlns="http://www.w3.org/2000/svg">
<path d="M47 0H71L49 100H25L47 0Z" fill="#4D8C7C"/>
<path d="M32 39H40L44 35H66V63H57.5H49H32V39Z" fill="#F6CD76"/>
<path d="M32 39V38H31V39H32ZM66 35H67V34H66V35ZM66 63L66.7071 63.7071C66.8946 63.5196 67 63.2652 67 63H66ZM32 63H31V64H32V63ZM40 39V40H40.4142L40.7071 39.7071L40 39ZM44 35V34H43.5858L43.2929 34.2929L44 35ZM65 35V63H67V35H65ZM33 63V39H31V63H33ZM32 40H40V38H32V40ZM40.7071 39.7071L44.7071 35.7071L43.2929 34.2929L39.2929 38.2929L40.7071 39.7071ZM44 36H66V34H44V36ZM49 62H32V64H49V62ZM65.2929 62.2929L64.7929 62.7929L66.2071 64.2071L66.7071 63.7071L65.2929 62.2929Z" fill="#572E0F"/>
<path d="M40 63L46 69H60L66 63H62.75H59.5H53H40Z" fill="#F6CD76"/>
<path d="M60 69L60.7071 69.7071L60.4142 70H60V69ZM40 63L39.2929 63.7071L37.5858 62H40V63ZM46 69V70H45.5858L45.2929 69.7071L46 69ZM66 63H67L66.7071 63.7071L66 63ZM40.7071 62.2929L46.7071 68.2929L45.2929 69.7071L39.2929 63.7071L40.7071 62.2929ZM46 68H60V70H46V68ZM59.2929 68.2929L65.2929 62.2929L66.7071 63.7071L60.7071 69.7071L59.2929 68.2929ZM53 64H40V62H53V64ZM65 63V62H67V63H65Z" fill="#572E0F"/>
<rect x="66" y="46" width="4" height="8" fill="#F6CD76" stroke="#572E0F" stroke-width="2"/>
<rect x="51" y="35" width="4" height="6" transform="rotate(-90 51 35)" fill="#F6CD76" stroke="#572E0F" stroke-width="2"/>
<rect x="70" y="42" width="6" height="16" fill="#F6CD76" stroke="#572E0F" stroke-width="2"/>
<path d="M48 31L48 30C48 28.3431 49.3431 27 51 27L57 27C58.6569 27 60 28.3431 60 30L60 31L48 31Z" fill="#F6CD76" stroke="#572E0F" stroke-width="2"/>
<rect x="32" y="53" width="6" height="6" transform="rotate(-180 32 53)" fill="#F6CD76" stroke="#572E0F" stroke-width="2"/>
<path d="M27 66H21V58L22 54V50V46L21 42V34H27V42L26 46V50V54L27 58V66Z" fill="#F6CD76" stroke="#572E0F" stroke-width="2"/>
<path d="M38.0104 51.491L38.6634 52.2484L38.0104 51.491ZM45.2037 56.9568L44.819 56.0337L45.2037 56.9568ZM37.9991 51.5356L37.4982 50.6701L37.9991 51.5356ZM55.7696 52.5543L55.385 51.6313L55.7696 52.5543ZM59.6623 52.1141C62.2364 50.7867 64 48.1001 64 45H62C62 47.3226 60.6805 49.3387 58.7456 50.3366L59.6623 52.1141ZM64 45C64 40.5817 60.4183 37 56 37V39C59.3137 39 62 41.6863 62 45H64ZM56 37C54.204 37 52.5437 37.593 51.208 38.5935L52.407 40.1942C53.4086 39.444 54.651 39 56 39V37ZM48.1831 41.4012L37.3575 50.7336L38.6634 52.2484L49.489 42.916L48.1831 41.4012ZM37.4982 50.6701C36.0069 51.5333 35 53.1485 35 55H37C37 53.8911 37.6011 52.9214 38.5001 52.4011L37.4982 50.6701ZM35 55C35 57.7614 37.2386 60 40 60V58C38.3431 58 37 56.6569 37 55H35ZM45.5883 57.8799L56.1542 53.4774L55.385 51.6313L44.819 56.0337L45.5883 57.8799ZM37.3575 50.7336C37.0046 51.0378 36.9034 51.5429 37.1117 51.9595L38.9006 51.0651C39.1017 51.4673 39.004 51.9547 38.6634 52.2484L37.3575 50.7336ZM40 60C41.1695 60 42.2064 59.5862 43.0991 59.1448C43.5428 58.9254 43.9912 58.6776 44.3953 58.4622C44.8124 58.2399 45.2021 58.0408 45.5883 57.8799L44.819 56.0337C44.3412 56.2328 43.8825 56.4691 43.4544 56.6974C43.0133 56.9325 42.6198 57.1506 42.2125 57.352C41.4034 57.7521 40.7024 58 40 58V60ZM51.208 38.5935C50.6053 39.0449 50.0755 39.5595 49.5929 40.042C49.0959 40.5389 48.6592 40.9908 48.1831 41.4012L49.489 42.916C50.037 42.4436 50.5449 41.9184 51.007 41.4563C51.4836 40.9798 51.9275 40.5534 52.407 40.1942L51.208 38.5935ZM37.1117 51.9595C36.8779 51.4919 37.0519 50.9284 37.4982 50.6701L38.5001 52.4011C38.9626 52.1334 39.1428 51.5495 38.9006 51.0651L37.1117 51.9595ZM58.7456 50.3366C58.2662 50.5838 57.7463 50.7793 57.1726 50.9798C56.6179 51.1737 55.9869 51.3805 55.385 51.6313L56.1542 53.4774C56.6849 53.2563 57.2258 53.0798 57.8325 52.8678C58.4202 52.6624 59.0512 52.4293 59.6623 52.1141L58.7456 50.3366Z" fill="#572E0F"/>
<circle cx="40" cy="55" r="2" fill="#572E0F"/>
<circle cx="56" cy="45" r="3" stroke="#572E0F" stroke-width="2"/>
</svg>
