<svg width="60" height="60" viewBox="0 0 60 60" fill="none" xmlns="http://www.w3.org/2000/svg">
<path d="M14 19H22L26 15H48V43H39.5H31H14V19Z" fill="#F6CD76"/>
<path d="M14 19V18H13V19H14ZM48 15H49V14H48V15ZM48 43L48.7071 43.7071C48.8946 43.5196 49 43.2652 49 43H48ZM14 43H13V44H14V43ZM22 19V20H22.4142L22.7071 19.7071L22 19ZM26 15V14H25.5858L25.2929 14.2929L26 15ZM47 15V43H49V15H47ZM15 43V19H13V43H15ZM14 20H22V18H14V20ZM22.7071 19.7071L26.7071 15.7071L25.2929 14.2929L21.2929 18.2929L22.7071 19.7071ZM26 16H48V14H26V16ZM31 42H14V44H31V42ZM47.2929 42.2929L46.7929 42.7929L48.2071 44.2071L48.7071 43.7071L47.2929 42.2929Z" fill="#572E0F"/>
<path d="M22 43L28 49H42L48 43H44.75H41.5H35H22Z" fill="#F6CD76"/>
<path d="M42 49L42.7071 49.7071L42.4142 50H42V49ZM22 43L21.2929 43.7071L19.5858 42H22V43ZM28 49V50H27.5858L27.2929 49.7071L28 49ZM48 43H49L48.7071 43.7071L48 43ZM22.7071 42.2929L28.7071 48.2929L27.2929 49.7071L21.2929 43.7071L22.7071 42.2929ZM28 48H42V50H28V48ZM41.2929 48.2929L47.2929 42.2929L48.7071 43.7071L42.7071 49.7071L41.2929 48.2929ZM35 44H22V42H35V44ZM47 43V42H49V43H47Z" fill="#572E0F"/>
<rect x="48" y="26" width="4" height="8" fill="#F6CD76" stroke="#572E0F" stroke-width="2"/>
<rect x="33" y="15" width="4" height="6" transform="rotate(-90 33 15)" fill="#F6CD76" stroke="#572E0F" stroke-width="2"/>
<rect x="52" y="22" width="6" height="16" fill="#F6CD76" stroke="#572E0F" stroke-width="2"/>
<path d="M30 11L30 10C30 8.34315 31.3431 7 33 7L39 7C40.6569 7 42 8.34315 42 10L42 11L30 11Z" fill="#F6CD76" stroke="#572E0F" stroke-width="2"/>
<rect x="14" y="33" width="6" height="6" transform="rotate(-180 14 33)" fill="#F6CD76" stroke="#572E0F" stroke-width="2"/>
<path d="M9 46H3V38L4 34V30V26L3 22V14H9V22L8 26V30V34L9 38V46Z" fill="#F6CD76" stroke="#572E0F" stroke-width="2"/>
<path d="M20.0104 31.491L20.6634 32.2484L20.0104 31.491ZM27.2037 36.9568L26.819 36.0337L27.2037 36.9568ZM19.9991 31.5356L19.4982 30.6701L19.9991 31.5356ZM37.7696 32.5543L37.385 31.6313L37.7696 32.5543ZM41.6623 32.1141C44.2364 30.7867 46 28.1001 46 25H44C44 27.3226 42.6805 29.3387 40.7456 30.3366L41.6623 32.1141ZM46 25C46 20.5817 42.4183 17 38 17V19C41.3137 19 44 21.6863 44 25H46ZM38 17C36.204 17 34.5437 17.593 33.208 18.5935L34.407 20.1942C35.4086 19.444 36.651 19 38 19V17ZM30.1831 21.4012L19.3575 30.7336L20.6634 32.2484L31.489 22.916L30.1831 21.4012ZM19.4982 30.6701C18.0069 31.5333 17 33.1485 17 35H19C19 33.8911 19.6011 32.9214 20.5001 32.4011L19.4982 30.6701ZM17 35C17 37.7614 19.2386 40 22 40V38C20.3431 38 19 36.6569 19 35H17ZM27.5883 37.8799L38.1542 33.4774L37.385 31.6313L26.819 36.0337L27.5883 37.8799ZM19.3575 30.7336C19.0046 31.0378 18.9034 31.5429 19.1117 31.9595L20.9006 31.0651C21.1017 31.4673 21.004 31.9547 20.6634 32.2484L19.3575 30.7336ZM22 40C23.1695 40 24.2064 39.5862 25.0991 39.1448C25.5428 38.9254 25.9912 38.6776 26.3953 38.4622C26.8124 38.2399 27.2021 38.0408 27.5883 37.8799L26.819 36.0337C26.3412 36.2328 25.8825 36.4691 25.4544 36.6974C25.0133 36.9325 24.6198 37.1506 24.2125 37.352C23.4034 37.7521 22.7024 38 22 38V40ZM33.208 18.5935C32.6053 19.0449 32.0755 19.5595 31.5929 20.042C31.0959 20.5389 30.6592 20.9908 30.1831 21.4012L31.489 22.916C32.037 22.4436 32.5449 21.9184 33.007 21.4563C33.4836 20.9798 33.9275 20.5534 34.407 20.1942L33.208 18.5935ZM19.1117 31.9595C18.8779 31.4919 19.0519 30.9284 19.4982 30.6701L20.5001 32.4011C20.9626 32.1334 21.1428 31.5495 20.9006 31.0651L19.1117 31.9595ZM40.7456 30.3366C40.2662 30.5838 39.7463 30.7793 39.1726 30.9798C38.6179 31.1737 37.9869 31.3805 37.385 31.6313L38.1542 33.4774C38.6849 33.2563 39.2258 33.0798 39.8325 32.8678C40.4202 32.6624 41.0512 32.4293 41.6623 32.1141L40.7456 30.3366Z" fill="#572E0F"/>
<circle cx="22" cy="35" r="2" fill="#572E0F"/>
<circle cx="38" cy="25" r="3" stroke="#572E0F" stroke-width="2"/>
</svg>
