<svg width="60" height="60" viewBox="0 0 60 60" fill="none" xmlns="http://www.w3.org/2000/svg">
<rect x="50.5977" y="6.70355" width="4" height="20" transform="rotate(60 50.5977 6.70355)" fill="#F6CD76" stroke="#572E0F" stroke-width="2"/>
<rect x="42.6621" y="10.1305" width="6" height="20" transform="rotate(60 42.6621 10.1305)" fill="#F6CD76" stroke="#572E0F" stroke-width="2"/>
<rect x="56.5976" y="17.0959" width="4" height="20" transform="rotate(60 56.5976 17.0959)" fill="#F6CD76" stroke="#572E0F" stroke-width="2"/>
<rect x="48.6621" y="20.5228" width="6" height="20" transform="rotate(60 48.6621 20.5228)" fill="#F6CD76" stroke="#572E0F" stroke-width="2"/>
<path d="M33.0019 13.3984L44.0019 32.451C44.0019 32.451 39.813 39.3085 36.1096 42.7811C30.7501 47.8065 24.0894 50.687 17.1369 52.4138C15.466 52.8289 13.7443 52.0433 12.8834 50.5523L1.76646 31.2971C0.905602 29.8061 1.08614 27.9222 2.28103 26.6827C7.25271 21.5251 13.0777 17.197 20.1096 15.0683C24.9686 13.5973 33.0019 13.3984 33.0019 13.3984Z" fill="#F6CD76" stroke="#572E0F" stroke-width="2"/>
<path d="M35.5591 36.1707C36.5156 35.6184 36.8434 34.3952 36.2911 33.4387L28.2911 19.5823C27.7388 18.6257 26.5156 18.2979 25.5591 18.8502L16.1814 24.2644C11.3984 27.0258 9.75968 33.1417 12.5211 37.9247V37.9247C15.2825 42.7076 21.3984 44.3464 26.1814 41.5849L35.5591 36.1707Z" fill="#F6CD76" stroke="#572E0F" stroke-width="2"/>
<path d="M27.541 32.7897C28.0193 32.5135 28.1832 31.9019 27.9071 31.4236L25.9071 27.9595C25.6309 27.4813 25.0193 27.3174 24.541 27.5935L17.6128 31.5935C17.1346 31.8697 16.9707 32.4813 17.2468 32.9595L19.2468 36.4236C19.523 36.9019 20.1346 37.0658 20.6128 36.7897L27.541 32.7897Z" fill="#572E0F"/>
</svg>
