<svg width="32" height="32" viewBox="0 0 32 32" fill="none" xmlns="http://www.w3.org/2000/svg">
<path fill-rule="evenodd" clip-rule="evenodd" d="M30 16C30 23.732 23.732 30 16 30C8.26801 30 2 23.732 2 16C2 8.26801 8.26801 2 16 2C23.732 2 30 8.26801 30 16ZM32 16C32 24.8366 24.8366 32 16 32C7.16344 32 0 24.8366 0 16C0 7.16344 7.16344 0 16 0C24.8366 0 32 7.16344 32 16ZM19.8268 25.2388C18.6136 25.7413 17.3132 26 16 26V16V6C17.3132 6 18.6136 6.25866 19.8268 6.7612C21.0401 7.26375 22.1425 8.00035 23.0711 8.92893C23.9997 9.85752 24.7362 10.9599 25.2388 12.1732C25.7413 13.3864 26 14.6868 26 16C26 17.3132 25.7413 18.6136 25.2388 19.8268C24.7362 21.0401 23.9997 22.1425 23.0711 23.0711C22.1425 23.9997 21.0401 24.7362 19.8268 25.2388Z" fill="white"/>
</svg>
