<svg width="60" height="60" viewBox="0 0 60 60" fill="none" xmlns="http://www.w3.org/2000/svg">
<path fill-rule="evenodd" clip-rule="evenodd" d="M29 15C26.7909 15 24.7909 15.8954 23.3432 17.3431L9.20104 3.20099C7.90102 4.50101 6.86978 6.04436 6.16621 7.74291C5.46265 9.44147 5.10052 11.262 5.10052 13.1005C5.10052 14.939 5.46264 16.7595 6.16621 18.4581C6.86977 20.1566 7.90101 21.7 9.20103 23C10.501 24.3 12.0444 25.3312 13.743 26.0348C15.4415 26.7384 17.262 27.1005 19.1005 27.1005C20.064 27.1005 21.0225 27.001 21.9612 26.8051C22.9958 28.7149 24.785 30.1563 26.9289 30.7293L21.7531 50.0459C23.5289 50.5217 25.3811 50.6431 27.2039 50.4032C29.0267 50.1632 30.7844 49.5666 32.3765 48.6473C33.9687 47.7281 35.3643 46.5042 36.4835 45.0456C37.6027 43.587 38.4237 41.9223 38.8995 40.1464C39.3754 38.3706 39.4968 36.5184 39.2568 34.6956C39.0168 32.8728 38.4202 31.1151 37.5009 29.5229C37.0191 28.6884 36.4536 27.9079 35.8145 27.1929C36.5663 25.9737 37 24.5375 37 23C37 22.2838 36.9059 21.5895 36.7293 20.9289L56.0459 15.7531C55.5701 13.9772 54.7491 12.3125 53.6299 10.8539C52.5107 9.39529 51.1152 8.17143 49.523 7.25217C47.9308 6.33292 46.1731 5.73627 44.3504 5.4963C42.5276 5.25632 40.6754 5.37772 38.8995 5.85356C37.1237 6.3294 35.4589 7.15036 34.0003 8.26957C32.5417 9.38879 31.3179 10.7843 30.3986 12.3765C29.9166 13.2114 29.5233 14.0917 29.2236 15.0031C29.1493 15.001 29.0748 15 29 15ZM29 25C30.1046 25 31 24.1046 31 23C31 21.8954 30.1046 21 29 21C27.8954 21 27 21.8954 27 23C27 24.1046 27.8954 25 29 25Z" fill="#F6CD76"/>
<path fill-rule="evenodd" clip-rule="evenodd" d="M49 41.5279C49.0829 41.602 49.1638 41.6785 49.2426 41.7574C49.7998 42.3145 50.2417 42.9759 50.5433 43.7039C50.8448 44.4319 51 45.2121 51 46C51 46.7879 50.8448 47.5681 50.5433 48.2961C50.2417 49.0241 49.7998 49.6855 49.2426 50.2426C48.8711 50.6142 48.4531 50.9345 48 51.1962V56.583C48.4102 56.4667 48.814 56.3265 49.2095 56.1627C50.5441 55.6099 51.7567 54.7996 52.7782 53.7782C53.7996 52.7567 54.6099 51.5441 55.1627 50.2095C55.7155 48.8749 56 47.4445 56 46C56 44.5555 55.7155 43.1251 55.1627 41.7905C54.6099 40.4559 53.7996 39.2433 52.7782 38.2218C51.7567 37.2004 50.5441 36.3901 49.2095 35.8373C47.8749 35.2845 46.4445 35 45 35C43.5555 35 42.1251 35.2845 40.7905 35.8373C39.4559 36.3901 38.2433 37.2004 37.2218 38.2218C36.2004 39.2433 35.3901 40.4559 34.8373 41.7905C34.2845 43.1251 34 44.5555 34 46C34 47.4445 34.2845 48.8749 34.8373 50.2095C35.3901 51.5441 36.2004 52.7567 37.2218 53.7782C38.2433 54.7996 39.4559 55.6099 40.7905 56.1627C41.1859 56.3265 41.5898 56.4667 42 56.583V51.1961C41.5469 50.9345 41.1289 50.6142 40.7574 50.2426C40.2002 49.6855 39.7583 49.0241 39.4567 48.2961C39.1552 47.5681 39 46.7879 39 46C39 45.2121 39.1552 44.4319 39.4567 43.7039C39.7583 42.9759 40.2002 42.3145 40.7574 41.7574C40.8362 41.6785 40.9171 41.602 41 41.5279V47L45 50L49 47V41.5279Z" fill="#F6CD76"/>
<path fill-rule="evenodd" clip-rule="evenodd" d="M23.3824 15.9682L9.20104 1.7868L8.49393 2.49391C7.10105 3.88679 5.99616 5.54037 5.24234 7.36026C4.48851 9.18014 4.10052 11.1307 4.10052 13.1005C4.10052 15.0703 4.48851 17.0209 5.24233 18.8408C5.99615 20.6606 7.10104 22.3142 8.49392 23.7071C9.8868 25.1 11.5404 26.2049 13.3603 26.9587C15.1802 27.7125 17.1307 28.1005 19.1005 28.1005C19.8921 28.1005 20.6807 28.0379 21.4588 27.914C22.4755 29.4712 23.9617 30.6947 25.7186 31.3828L20.5283 50.753L21.4943 51.0119C23.397 51.5217 25.3815 51.6518 27.3344 51.3946C29.2874 51.1375 31.1706 50.4983 32.8765 49.5134C33.3714 49.2277 33.8485 48.9145 34.3058 48.5757C34.1225 47.8144 34.0206 47.0343 34.0028 46.2486C33.3491 46.8284 32.637 47.3423 31.8765 47.7813C30.3981 48.6349 28.766 49.1889 27.0734 49.4118C25.7122 49.591 24.3333 49.5531 22.9878 49.3016L28.1539 30.0216L27.1872 29.7632C25.3134 29.2624 23.7465 28.0013 22.8404 26.3288L22.4857 25.6741L21.7568 25.8262C20.8852 26.0082 19.9952 26.1005 19.1005 26.1005C17.3933 26.1005 15.7029 25.7643 14.1256 25.111C12.5484 24.4576 11.1153 23.5001 9.90813 22.2929C8.70097 21.0857 7.7434 19.6526 7.09009 18.0754C6.43678 16.4982 6.10052 14.8077 6.10052 13.1005C6.10052 11.3933 6.43678 9.70286 7.09009 8.12563C7.61551 6.85717 8.33771 5.68193 9.22827 4.64247L23.3432 18.7574L24.0503 18.0503C25.3181 16.7824 27.0667 16 29 16C29.0656 16 29.131 16.0009 29.1962 16.0027L29.9409 16.0231L30.1736 15.3155C30.4519 14.4692 30.8171 13.6518 31.2647 12.8765C32.1182 11.3981 33.2547 10.1022 34.6091 9.06296C35.9635 8.02369 37.5093 7.26137 39.1583 6.81951C40.8074 6.37766 42.5272 6.26494 44.2198 6.48777C45.9124 6.7106 47.5445 7.26463 49.023 8.11823C50.5015 8.97182 51.7973 10.1083 52.8366 11.4627C53.6724 12.5519 54.3291 13.765 54.784 15.056L35.5052 20.2217L35.7633 21.1872C35.9175 21.7643 36 22.3717 36 23C36 24.3469 35.6206 25.6021 34.9633 26.6681L34.5717 27.3031L35.0689 27.8594C35.6624 28.5233 36.1875 29.2481 36.6349 30.023C37.4885 31.5014 38.0425 33.1336 38.2653 34.8261C38.3706 35.6255 38.401 36.431 38.3572 37.2323C38.9817 36.7592 39.6558 36.3535 40.3682 36.0227C40.352 35.5361 40.312 35.0496 40.2482 34.5651C39.9911 32.6121 39.3518 30.7289 38.3669 29.023C37.9713 28.3377 37.5229 27.6863 37.0268 27.0746C37.6492 25.8505 38 24.4651 38 23C38 22.5419 37.9657 22.0913 37.8994 21.6507L57.2707 16.4602L57.0119 15.4943C56.502 13.5916 55.6224 11.8079 54.4233 10.2451C53.2241 8.68237 51.7289 7.37109 50.023 6.38618C48.3171 5.40126 46.4339 4.762 44.4809 4.50488C42.5279 4.24777 40.5434 4.37783 38.6407 4.88766C36.738 5.39749 34.9543 6.27709 33.3916 7.47625C31.8288 8.6754 30.5175 10.1706 29.5326 11.8765C29.1367 12.5623 28.7966 13.2768 28.5147 14.0129C26.5784 14.1159 24.8036 14.8315 23.3824 15.9682ZM28 23C28 22.4477 28.4477 22 29 22C29.5523 22 30 22.4477 30 23C30 23.5523 29.5523 24 29 24C28.4477 24 28 23.5523 28 23ZM29 20C27.3432 20 26 21.3432 26 23C26 24.6569 27.3432 26 29 26C30.6569 26 32 24.6569 32 23C32 21.3432 30.6569 20 29 20Z" fill="#572E0F"/>
<path fill-rule="evenodd" clip-rule="evenodd" d="M33.9497 18.0503C32.637 16.7375 30.8565 16 29 16V14C31.3869 14 33.6761 14.9482 35.364 16.636L33.9497 18.0503Z" fill="#572E0F"/>
<path fill-rule="evenodd" clip-rule="evenodd" d="M22.2385 21.1883C22.0006 22.0762 21.9399 23.0023 22.0599 23.9137C22.1799 24.8251 22.4782 25.7039 22.9378 26.5L21.2058 27.5C20.6148 26.4765 20.2313 25.3465 20.077 24.1748C19.9227 23.003 20.0008 21.8123 20.3067 20.6707L22.2385 21.1883Z" fill="#572E0F"/>
<path fill-rule="evenodd" clip-rule="evenodd" d="M33.2614 28.5535C33.9907 27.9939 34.6026 27.2961 35.0622 26.5L36.7943 27.5C36.2033 28.5236 35.4165 29.4207 34.4789 30.1402C33.5412 30.8597 32.471 31.3874 31.3294 31.6933L30.8118 29.7615C31.6997 29.5236 32.5321 29.1131 33.2614 28.5535Z" fill="#572E0F"/>
<path d="M31 23C31 24.1046 30.1046 25 29 25C27.8954 25 27 24.1046 27 23C27 21.8954 27.8954 21 29 21C30.1046 21 31 21.8954 31 23Z" fill="#572E0F"/>
<path fill-rule="evenodd" clip-rule="evenodd" d="M40.4078 34.9134C41.8637 34.3104 43.4241 34 45 34C46.5759 34 48.1363 34.3104 49.5922 34.9134C51.0481 35.5165 52.371 36.4004 53.4853 37.5147C54.5996 38.629 55.4835 39.9519 56.0866 41.4078C56.6896 42.8637 57 44.4241 57 46C57 47.5759 56.6896 49.1363 56.0866 50.5922C55.4835 52.0481 54.5996 53.371 53.4853 54.4853C52.371 55.5996 51.0481 56.4835 49.5922 57.0866C49.1608 57.2653 48.7202 57.4183 48.2727 57.5451L47 57.9059V50.6188L47.5 50.3301C47.8776 50.1121 48.2259 49.8452 48.5355 49.5355C48.9998 49.0712 49.3681 48.52 49.6194 47.9134C49.6442 47.8534 49.6679 47.793 49.6903 47.7322L45 51.25L40.3097 47.7322C40.3321 47.793 40.3558 47.8534 40.3806 47.9134C40.6319 48.52 41.0002 49.0712 41.4645 49.5355C41.7741 49.8452 42.1224 50.1121 42.5 50.3301L43 50.6188V57.9059L41.7273 57.5451C41.2798 57.4183 40.8392 57.2653 40.4078 57.0866C38.9519 56.4835 37.629 55.5996 36.5147 54.4853C35.4004 53.371 34.5165 52.0481 33.9134 50.5922C33.3104 49.1363 33 47.5759 33 46C33 44.4241 33.3104 42.8637 33.9134 41.4078C34.5165 39.9519 35.4004 38.629 36.5147 37.5147C37.629 36.4004 38.9519 35.5165 40.4078 34.9134ZM50 46.0062C50 46.0041 50 46.0021 50 46C50 45.9979 50 45.9959 50 45.9938V46.0062ZM45 36C43.6868 36 42.3864 36.2587 41.1732 36.7612C39.9599 37.2638 38.8575 38.0003 37.9289 38.9289C37.0003 39.8575 36.2638 40.9599 35.7612 42.1732C35.2587 43.3864 35 44.6868 35 46C35 47.3132 35.2587 48.6136 35.7612 49.8268C36.2638 51.0401 37.0003 52.1425 37.9289 53.0711C38.8131 53.9553 39.8549 54.6654 41 55.1651V51.7446C40.6614 51.5088 40.3434 51.2429 40.0503 50.9497C39.4002 50.2997 38.8846 49.5281 38.5328 48.6788C38.1811 47.8295 38 46.9193 38 46C38 45.0807 38.1811 44.1705 38.5328 43.3212C38.8846 42.4719 39.4002 41.7003 40.0503 41.0503C40.6343 40.4662 41.1732 40 42 39.5V46.5L45 48.75L48 46.5V39.5C48.8268 40 49.3321 40.4326 49.9497 41.0503C50.5998 41.7003 51.1154 42.4719 51.4672 43.3212C51.8189 44.1705 52 45.0807 52 46C52 46.9193 51.8189 47.8295 51.4672 48.6788C51.1154 49.5281 50.5998 50.2997 49.9497 50.9497C49.6566 51.2429 49.3386 51.5088 49 51.7446V55.1652C50.1451 54.6654 51.1869 53.9553 52.0711 53.0711C52.9997 52.1425 53.7362 51.0401 54.2388 49.8268C54.7413 48.6136 55 47.3132 55 46C55 44.6868 54.7413 43.3864 54.2388 42.1732C53.7362 40.9599 52.9997 39.8575 52.0711 38.9289C51.1425 38.0003 50.0401 37.2638 48.8268 36.7612C47.6136 36.2587 46.3132 36 45 36Z" fill="#572E0F"/>
</svg>
