<svg width="32" height="32" viewBox="0 0 32 32" fill="none" xmlns="http://www.w3.org/2000/svg">
<path fill-rule="evenodd" clip-rule="evenodd" d="M30 16C30 23.732 23.732 30 16 30C8.26801 30 2 23.732 2 16C2 8.26801 8.26801 2 16 2C23.732 2 30 8.26801 30 16ZM32 16C32 24.8366 24.8366 32 16 32C7.16344 32 0 24.8366 0 16C0 7.16344 7.16344 0 16 0C24.8366 0 32 7.16344 32 16ZM7.6853 21.5557C6.58649 19.9112 6 17.9778 6 16L16 16V6C17.9778 6 19.9112 6.58649 21.5557 7.6853C23.2002 8.78412 24.4819 10.3459 25.2388 12.1732C25.9957 14.0004 26.1937 16.0111 25.8079 17.9509C25.422 19.8907 24.4696 21.6725 23.0711 23.0711C21.6725 24.4696 19.8907 25.422 17.9509 25.8079C16.0111 26.1937 14.0004 25.9957 12.1732 25.2388C10.3459 24.4819 8.78412 23.2002 7.6853 21.5557Z" fill="white"/>
</svg>
