<svg width="96" height="100" viewBox="0 0 96 100" fill="none" xmlns="http://www.w3.org/2000/svg">
<path d="M47 0H71L49 100H25L47 0Z" fill="#4D8C7C"/>
<path fill-rule="evenodd" clip-rule="evenodd" d="M47 35C44.7909 35 42.7909 35.8954 41.3431 37.3431L27.201 23.201C25.901 24.501 24.8698 26.0444 24.1662 27.7429C23.4626 29.4415 23.1005 31.262 23.1005 33.1005C23.1005 34.939 23.4626 36.7595 24.1662 38.4581C24.8698 40.1566 25.901 41.7 27.201 43C28.501 44.3 30.0444 45.3312 31.7429 46.0348C33.4415 46.7384 35.262 47.1005 37.1005 47.1005C38.064 47.1005 39.0225 47.0011 39.9611 46.8051C40.9958 48.715 42.785 50.1563 44.9289 50.7293L39.7531 70.0459C41.5289 70.5218 43.3811 70.6432 45.2039 70.4032C47.0267 70.1632 48.7843 69.5666 50.3765 68.6473C51.9687 67.7281 53.3643 66.5042 54.4835 65.0456C55.6027 63.587 56.4237 61.9223 56.8995 60.1464C57.3753 58.3706 57.4967 56.5184 57.2568 54.6956C57.0168 52.8728 56.4201 51.1152 55.5009 49.523C55.0191 48.6884 54.4536 47.9079 53.8145 47.1929C54.5663 45.9737 55 44.5375 55 43C55 42.2838 54.9059 41.5895 54.7293 40.9289L74.0459 35.7531C73.5701 33.9772 72.7491 32.3125 71.6299 30.8539C70.5107 29.3953 69.1152 28.1714 67.523 27.2522C65.9308 26.3329 64.1731 25.7363 62.3503 25.4963C60.5276 25.2563 58.6754 25.3777 56.8995 25.8536C55.1236 26.3294 53.4589 27.1504 52.0003 28.2696C50.5417 29.3888 49.3179 30.7843 48.3986 32.3765C47.9166 33.2114 47.5233 34.0917 47.2236 35.0031C47.1493 35.001 47.0748 35 47 35ZM47 45C48.1046 45 49 44.1046 49 43C49 41.8954 48.1046 41 47 41C45.8954 41 45 41.8954 45 43C45 44.1046 45.8954 45 47 45Z" fill="#F6CD76"/>
<path fill-rule="evenodd" clip-rule="evenodd" d="M67 61.5279C67.0829 61.602 67.1638 61.6785 67.2426 61.7574C67.7998 62.3145 68.2418 62.9759 68.5433 63.7039C68.8448 64.4319 69 65.2121 69 66C69 66.7879 68.8448 67.5681 68.5433 68.2961C68.2418 69.0241 67.7998 69.6855 67.2426 70.2426C66.8711 70.6142 66.4531 70.9345 66 71.1962V76.583C66.4102 76.4667 66.8141 76.3265 67.2095 76.1627C68.5441 75.6099 69.7567 74.7996 70.7782 73.7782C71.7996 72.7567 72.6099 71.5441 73.1627 70.2095C73.7155 68.8749 74 67.4445 74 66C74 64.5555 73.7155 63.1251 73.1627 61.7905C72.6099 60.4559 71.7996 59.2433 70.7782 58.2218C69.7567 57.2004 68.5441 56.3901 67.2095 55.8373C65.8749 55.2845 64.4445 55 63 55C61.5555 55 60.1251 55.2845 58.7905 55.8373C57.4559 56.3901 56.2433 57.2004 55.2218 58.2218C54.2004 59.2433 53.3901 60.4559 52.8373 61.7905C52.2845 63.1251 52 64.5555 52 66C52 67.4445 52.2845 68.8749 52.8373 70.2095C53.3901 71.5441 54.2004 72.7567 55.2218 73.7782C56.2433 74.7996 57.4559 75.6099 58.7905 76.1627C59.186 76.3265 59.5898 76.4667 60 76.583V71.1961C59.5469 70.9345 59.1289 70.6142 58.7574 70.2426C58.2002 69.6855 57.7583 69.0241 57.4567 68.2961C57.1552 67.5681 57 66.7879 57 66C57 65.2121 57.1552 64.4319 57.4567 63.7039C57.7583 62.9759 58.2002 62.3145 58.7574 61.7574C58.8362 61.6785 58.9171 61.602 59 61.5279V67L63 70L67 67V61.5279Z" fill="#F6CD76"/>
<path fill-rule="evenodd" clip-rule="evenodd" d="M41.3824 35.9681L27.201 21.7868L26.4939 22.4939C25.101 23.8868 23.9961 25.5404 23.2423 27.3602C22.4885 29.1801 22.1005 31.1307 22.1005 33.1005C22.1005 35.0703 22.4885 37.0209 23.2423 38.8407C23.9961 40.6606 25.101 42.3142 26.4939 43.7071C27.8868 45.1 29.5404 46.2049 31.3603 46.9587C33.1801 47.7125 35.1307 48.1005 37.1005 48.1005C37.8921 48.1005 38.6806 48.0378 39.4588 47.914C40.4754 49.4712 41.9617 50.6947 43.7186 51.3828L38.5283 70.753L39.4942 71.0118C41.3969 71.5217 43.3814 71.6517 45.3344 71.3946C47.2874 71.1375 49.1706 70.4983 50.8765 69.5133C51.3714 69.2276 51.8485 68.9145 52.3058 68.5757C52.1224 67.8144 52.0206 67.0343 52.0028 66.2486C51.3491 66.8284 50.637 67.3423 49.8765 67.7813C48.3981 68.6349 46.7659 69.1889 45.0734 69.4117C43.7121 69.5909 42.3333 69.5531 40.9878 69.3016L46.1538 50.0216L45.1871 49.7632C43.3134 49.2624 41.7464 48.0013 40.8404 46.3288L40.4857 45.6741L39.7568 45.8262C38.8852 46.0082 37.9952 46.1005 37.1005 46.1005C35.3933 46.1005 33.7029 45.7642 32.1256 45.1109C30.5484 44.4576 29.1153 43.5 27.9081 42.2929C26.701 41.0857 25.7434 39.6526 25.0901 38.0754C24.4368 36.4981 24.1005 34.8077 24.1005 33.1005C24.1005 31.3933 24.4368 29.7028 25.0901 28.1256C25.6155 26.8572 26.3377 25.6819 27.2283 24.6425L41.3431 38.7574L42.0503 38.0502C43.3181 36.7824 45.0667 36 47 36C47.0656 36 47.131 36.0009 47.1962 36.0027L47.9409 36.0231L48.1736 35.3155C48.4519 34.4692 48.8171 33.6517 49.2646 32.8765C50.1182 31.3981 51.2547 30.1022 52.6091 29.0629C53.9635 28.0237 55.5093 27.2614 57.1583 26.8195C58.8073 26.3776 60.5272 26.2649 62.2198 26.4878C63.9124 26.7106 65.5445 27.2646 67.023 28.1182C68.5014 28.9718 69.7973 30.1082 70.8366 31.4626C71.6724 32.5519 72.3291 33.765 72.784 35.0559L53.5052 40.2217L53.7632 41.1871C53.9175 41.7642 54 42.3717 54 43C54 44.3469 53.6206 45.6021 52.9633 46.6681L52.5717 47.3031L53.0689 47.8594C53.6624 48.5233 54.1875 49.2481 54.6349 50.023C55.4885 51.5014 56.0425 53.1335 56.2653 54.8261C56.3706 55.6255 56.401 56.431 56.3572 57.2323C56.9817 56.7591 57.6557 56.3535 58.3682 56.0227C58.352 55.536 58.312 55.0496 58.2482 54.5651C57.9911 52.6121 57.3518 50.7289 56.3669 49.023C55.9713 48.3376 55.5229 47.6863 55.0268 47.0745C55.6492 45.8505 56 44.4651 56 43C56 42.5419 55.9657 42.0912 55.8994 41.6507L75.2707 36.4602L75.0119 35.4943C74.502 33.5916 73.6224 31.8079 72.4233 30.2451C71.2241 28.6824 69.7289 27.3711 68.023 26.3862C66.3171 25.4012 64.4338 24.762 62.4809 24.5049C60.5279 24.2477 58.5434 24.3778 56.6407 24.8876C54.738 25.3975 52.9543 26.2771 51.3915 27.4762C49.8288 28.6754 48.5175 30.1706 47.5326 31.8765C47.1366 32.5623 46.7966 33.2768 46.5147 34.0129C44.5784 34.1159 42.8036 34.8315 41.3824 35.9681ZM46 43C46 42.4477 46.4477 42 47 42C47.5523 42 48 42.4477 48 43C48 43.5523 47.5523 44 47 44C46.4477 44 46 43.5523 46 43ZM47 40C45.3431 40 44 41.3431 44 43C44 44.6569 45.3431 46 47 46C48.6569 46 50 44.6569 50 43C50 41.3431 48.6569 40 47 40Z" fill="#572E0F"/>
<path fill-rule="evenodd" clip-rule="evenodd" d="M51.9497 38.0503C50.637 36.7375 48.8565 36 47 36V34C49.3869 34 51.6761 34.9482 53.364 36.636L51.9497 38.0503Z" fill="#572E0F"/>
<path fill-rule="evenodd" clip-rule="evenodd" d="M40.2385 41.1883C40.0006 42.0762 39.9399 43.0023 40.0599 43.9137C40.1799 44.8251 40.4782 45.7039 40.9378 46.5L39.2058 47.5C38.6148 46.4764 38.2313 45.3465 38.077 44.1747C37.9227 43.0029 38.0008 41.8122 38.3067 40.6706L40.2385 41.1883Z" fill="#572E0F"/>
<path fill-rule="evenodd" clip-rule="evenodd" d="M51.2613 48.5535C51.9906 47.9939 52.6026 47.2961 53.0622 46.5L54.7942 47.5C54.2033 48.5236 53.4165 49.4207 52.4789 50.1402C51.5412 50.8597 50.471 51.3874 49.3294 51.6933L48.8117 49.7615C49.6997 49.5236 50.532 49.1131 51.2613 48.5535Z" fill="#572E0F"/>
<path d="M49 43C49 44.1046 48.1046 45 47 45C45.8954 45 45 44.1046 45 43C45 41.8954 45.8954 41 47 41C48.1046 41 49 41.8954 49 43Z" fill="#572E0F"/>
<path fill-rule="evenodd" clip-rule="evenodd" d="M58.4078 54.9134C59.8637 54.3104 61.4241 54 63 54C64.5759 54 66.1363 54.3104 67.5922 54.9134C69.0481 55.5165 70.371 56.4004 71.4853 57.5147C72.5996 58.629 73.4835 59.9519 74.0866 61.4078C74.6896 62.8637 75 64.4241 75 66C75 67.5759 74.6896 69.1363 74.0866 70.5922C73.4835 72.0481 72.5996 73.371 71.4853 74.4853C70.371 75.5996 69.0481 76.4835 67.5922 77.0866C67.1608 77.2653 66.7202 77.4183 66.2727 77.5451L65 77.9059V70.6188L65.5 70.3301C65.8776 70.1121 66.2259 69.8452 66.5355 69.5355C66.9998 69.0712 67.3681 68.52 67.6194 67.9134C67.6442 67.8534 67.6679 67.793 67.6903 67.7322L63 71.25L58.3097 67.7322C58.3321 67.793 58.3558 67.8534 58.3806 67.9134C58.6319 68.52 59.0002 69.0712 59.4645 69.5355C59.7741 69.8452 60.1224 70.1121 60.5 70.3301L61 70.6188V77.9059L59.7273 77.5451C59.2798 77.4183 58.8392 77.2653 58.4078 77.0866C56.9519 76.4835 55.629 75.5996 54.5147 74.4853C53.4004 73.371 52.5165 72.0481 51.9134 70.5922C51.3104 69.1363 51 67.5759 51 66C51 64.4241 51.3104 62.8637 51.9134 61.4078C52.5165 59.9519 53.4004 58.629 54.5147 57.5147C55.629 56.4004 56.9519 55.5165 58.4078 54.9134ZM68 66.0062C68 66.0041 68 66.0021 68 66C68 65.9979 68 65.9959 68 65.9938V66.0062ZM63 56C61.6868 56 60.3864 56.2587 59.1732 56.7612C57.9599 57.2638 56.8575 58.0003 55.9289 58.9289C55.0004 59.8575 54.2638 60.9599 53.7612 62.1732C53.2587 63.3864 53 64.6868 53 66C53 67.3132 53.2587 68.6136 53.7612 69.8268C54.2638 71.0401 55.0003 72.1425 55.9289 73.0711C56.8131 73.9553 57.8549 74.6654 59 75.1651V71.7446C58.6614 71.5088 58.3434 71.2429 58.0503 70.9497C57.4002 70.2997 56.8846 69.5281 56.5328 68.6788C56.1811 67.8295 56 66.9193 56 66C56 65.0807 56.1811 64.1705 56.5328 63.3212C56.8846 62.4719 57.4002 61.7003 58.0503 61.0503C58.6343 60.4662 59.1732 60 60 59.5V66.5L63 68.75L66 66.5V59.5C66.8268 60 67.3321 60.4326 67.9498 61.0503C68.5998 61.7003 69.1154 62.4719 69.4672 63.3212C69.8189 64.1705 70 65.0807 70 66C70 66.9193 69.8189 67.8295 69.4672 68.6788C69.1154 69.5281 68.5998 70.2997 67.9498 70.9497C67.6566 71.2429 67.3386 71.5088 67 71.7446V75.1652C68.1451 74.6654 69.1869 73.9553 70.0711 73.0711C70.9997 72.1425 71.7363 71.0401 72.2388 69.8268C72.7413 68.6136 73 67.3132 73 66C73 64.6868 72.7413 63.3864 72.2388 62.1732C71.7363 60.9599 70.9997 59.8575 70.0711 58.9289C69.1425 58.0003 68.0401 57.2638 66.8268 56.7612C65.6136 56.2587 64.3132 56 63 56Z" fill="#572E0F"/>
</svg>
